<svg xmlns="http://www.w3.org/2000/svg" xmlns:xlink="http://www.w3.org/1999/xlink" version="1.1" id="Layer_1" x="0px" y="0px" width="100px" height="100px" viewBox="0 0 100 100" enable-background="new 0 0 100 100" xml:space="preserve">
<g>
	<g>
		<path d="M82.064,59.844c0.004-0.218-0.028-0.874-0.049-0.317c0.012,0.138,0.021,0.23,0.026,0.291    C82.05,59.826,82.058,59.836,82.064,59.844z M88.544,39.188h-8.742l0.083-0.122c-0.054-0.335-0.108-0.662-0.162-0.992l-1.1-9.891    c5.143-1.166,8.867-4.567,8.867-8.588c0-4.985-5.715-9.022-12.763-9.022c-0.63,0-1.239,0.044-1.844,0.103    c-0.896-0.133-1.306-0.574-1.479-0.977l-0.07-3.926c0.165-2.197-0.859-3.012-2.52-3.012c-1.113,0-2.545,2.619-3.618,4.777    c-0.048,0.067-0.081,0.157-0.121,0.244c-0.254,0.508-0.48,0.98-0.683,1.382c-3.225,3.378-6.014,9.946-6.478,15.525    c-0.104,1.227,0,1.954-0.517,2.449c-3.246,3.119-5.928,6.387-8.135,9.707c-10.449,14.687-9.16,27.661-9.078,37.236    c-1.16-3.887-1.367-8.497-1.367-13.482c0-1.327,0.015-2.689,0.026-4.067c0.015-1.296,0.03-2.61,0.03-3.929    c0-12.381-1.227-25.379-15.307-31.074c-9.674-4.087-16.105-1.737-16.374-1.633c-0.59,0.224-1.031,0.732-1.18,1.346    c-0.146,0.614,0.02,1.269,0.445,1.738c0.042,0.046,6.316,4.694,6.316,12.671c0,5.328-1.685,9.159-3.639,13.592    C6.953,54.195,4.48,59.815,4.48,68.226c0,13.392,8.217,28.599,24.326,27.798l36.31,0.151l-0.083-0.068h16.551    c1.791,0,3.243-1.451,3.243-3.247c0-1.793-1.452-3.245-3.243-3.245h-1.459c4.414-3.866,7.21-9.529,7.21-15.858    c0-5.34-2.003-10.196-5.272-13.914c0,0.079-0.008,0.092-0.021-0.027c-0.013-0.014-0.024-0.025-0.033-0.04    c0.004-0.104,0.004-0.187,0.006-0.251c-0.006-0.076-0.014-0.161-0.021-0.266c0,0-1.109-4.021,0.562-9.659h5.987    c2.874,0,5.212-2.33,5.212-5.204C93.757,41.52,91.419,39.188,88.544,39.188z M76.587,18.455c-1.03,0-1.859-0.834-1.859-1.858    c0-1.032,0.829-1.864,1.859-1.864c1.028,0,1.856,0.831,1.856,1.864C78.443,17.621,77.615,18.455,76.587,18.455z"/>
	</g>
</g>
</svg>